<?xml version="1.0" encoding="UTF-8"?><svg xmlns="http://www.w3.org/2000/svg" viewBox="0 0 590.59 324.05"><defs><style>.d{fill:#f6ae47;}.e{fill:#fff;}.f{fill:#53aeb7;}</style></defs><g id="a"/><g id="b"><g id="c"><g><g><path class="f" d="M228.62,.4c5.46-1.07,11.4-.02,15.85,3.45,6.64,4.84,9.49,14.1,6.74,21.84-2.89,8.96-12.95,14.87-22.19,12.8-8.61-1.55-15.53-9.56-15.66-18.34-.61-9.15,6.31-17.97,15.27-19.76Z"/><path class="f" d="M254.59,43.87c8.15-5.09,14.33-12.89,18.32-21.56,.23,14.12-.5,28.23,0,42.36-.51,7.01,.23,14.02-.13,21.04-.24,18.5,.49,36.99-.1,55.48,.19,7.86,.13,15.71,.19,23.58-.62,7.76,.71,15.57-.56,23.3-2.09-14.52-6.35-28.66-11.44-42.39-10.81-28.57-26.97-55.24-48.1-77.37-11.95-12.67-25.59-23.68-40.22-33.08,14.63,7.37,30.01,14.05,46.47,15.77,12.17,1.45,25.1-.45,35.55-7.12Z"/><path class="f" d="M126.51,55.46c2.52-3.46,4.66-7.21,7.47-10.45-12.82,32.61-25.84,65.14-39.5,97.4,36.67,.56,73.82,6.47,107.35,21.84,27.64,12.72,53.06,32.85,66.9,60.45-9.1-8.57-18.84-16.52-29.63-22.89-29.3-17.63-63.01-26.53-96.71-30.84-31.51-3.89-63.48-4.03-95.03-.58,26.38-38.3,52.77-76.61,79.15-114.92Z"/><path class="f" d="M423.44,45.04c6.39,8.36,12.01,17.3,18.1,25.89,22.84,33.15,45.65,66.31,68.5,99.45-38.66-4.15-77.98-3.25-116.24,3.94-33.03,6.38-65.82,18.12-92.41,39.23-4.52,3.41-8.42,7.51-12.76,11.12,12.67-25.06,34.91-44.14,59.61-56.82,35.27-18.09,75.31-24.83,114.64-25.42-13.58-32.28-26.67-64.77-39.45-97.38Z"/></g><g><path class="f" d="M320.25,.44c4.3-.77,8.93-.56,12.89,1.46,6.79,3.25,11.37,10.67,10.92,18.23-.11,9.08-7.53,17.25-16.47,18.51-6.55,1.1-13.54-1.6-17.8-6.68-4.87-5.53-6-13.96-2.88-20.61,2.42-5.45,7.52-9.62,13.34-10.92Z"/><path class="f" d="M284.79,23.27c3.68,6.9,8.25,13.47,14.58,18.2,10.69,8.35,24.9,11.09,38.18,9.61,16.72-1.56,32.36-8.33,47.21-15.8-24.07,15.34-45.05,35.49-61.29,58.97-18.18,26.21-30.94,56.14-37.39,87.36-.46,2.16-.66,4.35-.96,6.54-.49-3.02-.51-6.08-.43-9.13,.04-35.31-.15-70.57,.03-105.87-.45-9,.2-18,0-27.01-.47-7.62,.12-15.24,.08-22.87Z"/></g><g><path class="d" d="M173.04,80.41c6.49-2.6,14.33,1.35,16.68,7.8,1.11,4.56,.82,9.98-2.68,13.47-5.39,6.18-16.69,5.26-20.76-1.97-4.41-6.7-.98-16.87,6.76-19.3Z"/><path class="d" d="M197.71,79.9c12.67,8.54,22.74,20.43,30.73,33.35,12.77,20.6,21.35,43.38,29.97,65.92-7.01-9.52-16.14-17.3-26.23-23.4-15.34-9.43-32.17-16.24-49.37-21.46-16.75-4.9-34.02-8.44-51.5-8.87,16.1-2.3,32.44-3.74,48.06-8.5,8.55-2.77,18.13-6.54,22.33-15.1,3.36-7.39-.27-15.45-3.99-21.94Z"/><path class="d" d="M359.44,79.99c-2.28,5.02-5.35,10.07-4.93,15.8-.32,8.05,6.63,13.87,13.23,17.12,14.21,6.72,30.05,8.61,45.45,10.81,2.2,.61,5.22-.5,6.64,1.82-.87,.08-2.63,.26-3.51,.35,2.06,.42,4.15,.58,6.26,.71-11.33-1.14-22.52,1.58-33.52,3.87-19.13,4.54-37.86,11.13-55.25,20.37-13.32,7.02-25.89,16.06-34.85,28.34,9.6-24.95,19.06-50.37,34.33-72.53,7.09-10.3,15.85-19.5,26.14-26.66Z"/><path class="d" d="M375.71,80.38c7.85-3.15,17.64,3.53,17.24,12.05,.45,5-2.64,9.87-7.06,12.08-6.59,3.27-15.7,.19-18.11-6.99-2.97-6.64,1.16-14.91,7.92-17.14Z"/><path class="d" d="M75.34,181.24c.72-.32,1.48-.45,2.28-.38,7.86,.92,15.71-.87,23.6-.28,6.74,.67,13.54,.16,20.26,1.06,34.48,2.46,69.22,9.38,100.28,25.05,10.38,5.44,20.61,11.54,29.25,19.51-32.2-14.61-65.77-26.19-100.2-34.24-17.45-4.11-35.12-7.38-52.96-9.34-7.47-.93-15.01-.84-22.51-1.39Z"/><path class="d" d="M346.48,201.6c30.12-12.9,62.85-18.43,95.39-20.44,9.25-.02,18.53-1.3,27.76-.23,4.23,.43,8.49-.14,12.73,.19-29.35,.86-58.36,6.3-86.76,13.54-21.41,5.56-42.53,12.31-63.11,20.46-8.86,3.4-17.46,7.44-26.22,11.09,11.81-10.5,25.8-18.29,40.21-24.62Z"/></g></g><g><path class="e" d="M0,256.97H11.28l21,39.96,21.72-39.96h10.44v66h-7.92v-54.84l-20.28,35.88h-8.04l-20.28-35.88v54.84H0v-66Z"/><path class="e" d="M103.44,322.97h-7.92v-31.32l-21.84-34.68h9.36l16.92,27.12,17.04-27.12h9l-22.56,34.68v31.32Z"/><path class="e" d="M167.04,256.37c6.4,0,12.56,1.24,18.48,3.72l1.92,.72-3.96,9.24-1.8-.6c-3.2-1.2-5.88-1.94-8.04-2.22-2.16-.28-4.44-.42-6.84-.42-4.64,0-8.7,1.02-12.18,3.06s-6.14,4.82-7.98,8.34c-1.84,3.52-2.76,7.4-2.76,11.64,0,7.04,2.18,12.7,6.54,16.98,4.36,4.28,10.38,6.42,18.06,6.42,3.92,0,8.68-1.04,14.28-3.12l1.68-.72,3.84,9.48-1.68,.72c-3.84,1.52-7.32,2.64-10.44,3.36s-6.36,1.08-9.72,1.08c-7.04,0-13.18-1.52-18.42-4.56-5.24-3.04-9.24-7.16-12-12.36-2.76-5.2-4.14-10.92-4.14-17.16s1.44-12.14,4.32-17.22c2.88-5.08,6.98-9.08,12.3-12,5.32-2.92,11.5-4.38,18.54-4.38Z"/><path class="e" d="M255,256.97v66h-11.64v-27.6h-31.92v27.6h-11.76v-66h11.76v27.72h31.92v-27.72h11.64Z"/><path class="e" d="M300.36,256.97l24.84,66h-11.88l-6.72-17.4h-24.36l-6.6,17.4h-11.52l24.84-66h11.4Zm-6,13.32l-8.4,24.72h16.8l-8.4-24.72Z"/><path class="e" d="M355.92,256.97c18.08,0,27.12,6.48,27.12,19.44,.08,8.32-2.86,13.9-8.82,16.74-5.96,2.84-13.58,4.3-22.86,4.38-.88,0-1.84-.04-2.88-.12-1.04-.08-1.84-.16-2.4-.24v25.8h-11.76v-66h21.6Zm-9.84,29.52c.72,0,1.72,.08,3,.24l2.76,.12c6.08,0,10.82-.66,14.22-1.98,3.4-1.32,5.1-4.06,5.1-8.22,0-3.6-1.46-6.02-4.38-7.26-2.92-1.24-6.94-1.86-12.06-1.86h-8.64v18.96Z"/><path class="e" d="M442.07,256.97v10.56h-21.6v55.44h-11.76v-55.44h-21.6v-10.56h54.96Z"/><path class="e" d="M450.71,256.97h43.32v10.56h-31.56v16.56h27.96v10.68h-27.96v17.52h31.56v10.68h-43.32v-66Z"/><path class="e" d="M528.35,256.97c18.08,0,27.12,6.48,27.12,19.44,0,9.36-4.88,15.68-14.64,18.96l16.56,27.6h-13.32l-15.12-25.68c-1.2,.08-2.92,.12-5.16,.12-1.12,0-2.88-.08-5.28-.24v25.8h-11.76v-66h21.6Zm-9.84,29.52c2,.24,3.92,.36,5.76,.36,6.08,0,10.82-.66,14.22-1.98,3.4-1.32,5.1-4.06,5.1-8.22,0-3.6-1.46-6.02-4.38-7.26-2.92-1.24-6.94-1.86-12.06-1.86h-8.64v18.96Z"/></g><g><path class="e" d="M575.95,256.85v2.05h-4.2v10.77h-2.29v-10.77h-4.2v-2.05h10.68Z"/><path class="e" d="M580.68,256.85l3.47,7.02,3.54-7.02h2.89v12.83h-2.26v-9.68l-3.24,6.39h-1.96l-3.22-6.39v9.68h-2.29v-12.83h3.05Z"/></g></g></g></svg>